<svg xmlns="http://www.w3.org/2000/svg" width="128" height="128" viewBox="0 0 128 128">
  <circle cx="64" cy="64" r="56" fill="#1b5e20" stroke="#a5d6a7" stroke-width="4"/>
  <path d="M64 16c-26.5 0-48 21.5-48 48s21.5 48 48 48 48-21.5 48-48S90.5 16 64 16zm0 8c8.8 0 16 7.2 16 16s-7.2 16-16 16-16-7.2-16-16 7.2-16 16-16zM32 64c0-8.8 7.2-16 16-16s16 7.2 16 16-7.2 16-16 16-16-7.2-16-16zm48 40c-8.8 0-16-7.2-16-16s7.2-16 16-16 16 7.2 16 16-7.2 16-16 16zm16-40c0-8.8 7.2-16 16-16s16 7.2 16 16-7.2 16-16 16-16-7.2-16-16z" fill="#a5d6a7" opacity="0.6"/>
  <circle cx="64" cy="64" r="10" fill="#ff5252"/>
  <circle cx="64" cy="64" r="4" fill="#fff"/>
</svg>
